<mxfile host="app.diagrams.net" agent="Mozilla/5.0 (Windows NT 10.0; Win64; x64) AppleWebKit/537.36 (KHTML, like Gecko) Chrome/136.0.0.0 Safari/537.36" version="27.0.3">
  <diagram name="Page-1" id="naR0QIo5F7ohYDQjwnZy">
    <mxGraphModel dx="2066" dy="1343" grid="1" gridSize="5" guides="1" tooltips="1" connect="1" arrows="1" fold="1" page="1" pageScale="1" pageWidth="827" pageHeight="583" math="0" shadow="0">
      <root>
        <mxCell id="0" />
        <mxCell id="1" parent="0" />
        <mxCell id="a7J7K2taWwsyM3QRtXLd-1" value="" style="ellipse;whiteSpace=wrap;html=1;aspect=fixed;fillColor=light-dark(#ed0c0c, #ededed);" parent="1" vertex="1">
          <mxGeometry x="199" y="220" width="20" height="20" as="geometry" />
        </mxCell>
        <mxCell id="a7J7K2taWwsyM3QRtXLd-3" value="" style="ellipse;whiteSpace=wrap;html=1;aspect=fixed;fillColor=light-dark(#ed0c0c, #ededed);" parent="1" vertex="1">
          <mxGeometry x="399" y="220" width="20" height="20" as="geometry" />
        </mxCell>
        <mxCell id="a7J7K2taWwsyM3QRtXLd-5" value="" style="ellipse;whiteSpace=wrap;html=1;aspect=fixed;fillColor=light-dark(#ed0c0c, #ededed);" parent="1" vertex="1">
          <mxGeometry x="599" y="220" width="20" height="20" as="geometry" />
        </mxCell>
        <mxCell id="a7J7K2taWwsyM3QRtXLd-6" value="" style="ellipse;whiteSpace=wrap;html=1;aspect=fixed;fillColor=light-dark(#ed0c0c, #ededed);" parent="1" vertex="1">
          <mxGeometry x="199" y="420" width="20" height="20" as="geometry" />
        </mxCell>
        <mxCell id="a7J7K2taWwsyM3QRtXLd-7" value="" style="ellipse;whiteSpace=wrap;html=1;aspect=fixed;fillColor=light-dark(#ed0c0c, #ededed);" parent="1" vertex="1">
          <mxGeometry x="599" y="420" width="20" height="20" as="geometry" />
        </mxCell>
        <mxCell id="a7J7K2taWwsyM3QRtXLd-8" value="" style="ellipse;whiteSpace=wrap;html=1;aspect=fixed;fillColor=light-dark(#ed0c0c, #ededed);" parent="1" vertex="1">
          <mxGeometry x="399" y="420" width="20" height="20" as="geometry" />
        </mxCell>
        <mxCell id="a7J7K2taWwsyM3QRtXLd-9" value="" style="ellipse;whiteSpace=wrap;html=1;aspect=fixed;fillColor=light-dark(#776FED,#EDEDED);" parent="1" vertex="1">
          <mxGeometry x="304" y="225" width="10" height="10" as="geometry" />
        </mxCell>
        <mxCell id="a7J7K2taWwsyM3QRtXLd-10" value="" style="ellipse;whiteSpace=wrap;html=1;aspect=fixed;fillColor=light-dark(#776FED,#EDEDED);" parent="1" vertex="1">
          <mxGeometry x="304" y="425" width="10" height="10" as="geometry" />
        </mxCell>
        <mxCell id="a7J7K2taWwsyM3QRtXLd-11" value="" style="ellipse;whiteSpace=wrap;html=1;aspect=fixed;fillColor=light-dark(#776FED,#EDEDED);" parent="1" vertex="1">
          <mxGeometry x="204" y="325" width="10" height="10" as="geometry" />
        </mxCell>
        <mxCell id="a7J7K2taWwsyM3QRtXLd-12" value="" style="ellipse;whiteSpace=wrap;html=1;aspect=fixed;fillColor=light-dark(#776FED,#EDEDED);" parent="1" vertex="1">
          <mxGeometry x="304" y="325" width="10" height="10" as="geometry" />
        </mxCell>
        <mxCell id="a7J7K2taWwsyM3QRtXLd-13" value="" style="ellipse;whiteSpace=wrap;html=1;aspect=fixed;fillColor=light-dark(#776FED,#EDEDED);" parent="1" vertex="1">
          <mxGeometry x="405" y="325" width="10" height="10" as="geometry" />
        </mxCell>
        <mxCell id="a7J7K2taWwsyM3QRtXLd-14" value="" style="ellipse;whiteSpace=wrap;html=1;aspect=fixed;fillColor=light-dark(#776FED,#EDEDED);" parent="1" vertex="1">
          <mxGeometry x="104" y="325" width="10" height="10" as="geometry" />
        </mxCell>
        <mxCell id="a7J7K2taWwsyM3QRtXLd-15" value="" style="ellipse;whiteSpace=wrap;html=1;aspect=fixed;fillColor=light-dark(#776FED,#EDEDED);" parent="1" vertex="1">
          <mxGeometry x="104" y="225" width="10" height="10" as="geometry" />
        </mxCell>
        <mxCell id="a7J7K2taWwsyM3QRtXLd-17" value="" style="ellipse;whiteSpace=wrap;html=1;aspect=fixed;fillColor=light-dark(#776FED,#EDEDED);" parent="1" vertex="1">
          <mxGeometry x="104" y="425" width="10" height="10" as="geometry" />
        </mxCell>
        <mxCell id="a7J7K2taWwsyM3QRtXLd-18" value="" style="ellipse;whiteSpace=wrap;html=1;aspect=fixed;fillColor=light-dark(#776FED,#EDEDED);" parent="1" vertex="1">
          <mxGeometry x="104" y="525" width="10" height="10" as="geometry" />
        </mxCell>
        <mxCell id="a7J7K2taWwsyM3QRtXLd-19" value="" style="ellipse;whiteSpace=wrap;html=1;aspect=fixed;fillColor=light-dark(#776FED,#EDEDED);" parent="1" vertex="1">
          <mxGeometry x="204" y="525" width="10" height="10" as="geometry" />
        </mxCell>
        <mxCell id="a7J7K2taWwsyM3QRtXLd-20" value="" style="ellipse;whiteSpace=wrap;html=1;aspect=fixed;fillColor=light-dark(#776FED,#EDEDED);" parent="1" vertex="1">
          <mxGeometry x="304" y="525" width="10" height="10" as="geometry" />
        </mxCell>
        <mxCell id="a7J7K2taWwsyM3QRtXLd-21" value="" style="ellipse;whiteSpace=wrap;html=1;aspect=fixed;fillColor=light-dark(#776FED,#EDEDED);" parent="1" vertex="1">
          <mxGeometry x="705" y="105" width="9" height="9" as="geometry" />
        </mxCell>
        <mxCell id="a7J7K2taWwsyM3QRtXLd-22" value="" style="ellipse;whiteSpace=wrap;html=1;aspect=fixed;fillColor=light-dark(#776FED,#EDEDED);" parent="1" vertex="1">
          <mxGeometry x="504" y="525" width="10" height="10" as="geometry" />
        </mxCell>
        <mxCell id="a7J7K2taWwsyM3QRtXLd-23" value="" style="ellipse;whiteSpace=wrap;html=1;aspect=fixed;fillColor=light-dark(#776FED,#EDEDED);" parent="1" vertex="1">
          <mxGeometry x="504" y="425" width="10" height="10" as="geometry" />
        </mxCell>
        <mxCell id="a7J7K2taWwsyM3QRtXLd-24" value="" style="ellipse;whiteSpace=wrap;html=1;aspect=fixed;fillColor=light-dark(#776FED,#EDEDED);" parent="1" vertex="1">
          <mxGeometry x="505" y="325" width="10" height="10" as="geometry" />
        </mxCell>
        <mxCell id="a7J7K2taWwsyM3QRtXLd-25" value="" style="ellipse;whiteSpace=wrap;html=1;aspect=fixed;fillColor=light-dark(#776FED,#EDEDED);" parent="1" vertex="1">
          <mxGeometry x="504" y="225" width="10" height="10" as="geometry" />
        </mxCell>
        <mxCell id="a7J7K2taWwsyM3QRtXLd-26" value="" style="ellipse;whiteSpace=wrap;html=1;aspect=fixed;fillColor=light-dark(#776FED,#EDEDED);" parent="1" vertex="1">
          <mxGeometry x="604" y="525" width="10" height="10" as="geometry" />
        </mxCell>
        <mxCell id="a7J7K2taWwsyM3QRtXLd-27" value="" style="ellipse;whiteSpace=wrap;html=1;aspect=fixed;fillColor=light-dark(#776FED,#EDEDED);" parent="1" vertex="1">
          <mxGeometry x="605" y="325" width="10" height="10" as="geometry" />
        </mxCell>
        <mxCell id="a7J7K2taWwsyM3QRtXLd-28" value="" style="ellipse;whiteSpace=wrap;html=1;aspect=fixed;fillColor=light-dark(#776FED,#EDEDED);" parent="1" vertex="1">
          <mxGeometry x="704" y="530" width="10" height="10" as="geometry" />
        </mxCell>
        <mxCell id="a7J7K2taWwsyM3QRtXLd-29" value="" style="ellipse;whiteSpace=wrap;html=1;aspect=fixed;fillColor=light-dark(#776FED,#EDEDED);" parent="1" vertex="1">
          <mxGeometry x="704" y="425" width="10" height="10" as="geometry" />
        </mxCell>
        <mxCell id="a7J7K2taWwsyM3QRtXLd-30" value="" style="ellipse;whiteSpace=wrap;html=1;aspect=fixed;fillColor=light-dark(#776FED,#EDEDED);" parent="1" vertex="1">
          <mxGeometry x="704" y="325" width="10" height="10" as="geometry" />
        </mxCell>
        <mxCell id="a7J7K2taWwsyM3QRtXLd-33" value="" style="ellipse;whiteSpace=wrap;html=1;aspect=fixed;fillColor=light-dark(#776FED,#EDEDED);" parent="1" vertex="1">
          <mxGeometry x="704" y="225" width="10" height="10" as="geometry" />
        </mxCell>
        <mxCell id="a7J7K2taWwsyM3QRtXLd-34" value="" style="ellipse;whiteSpace=wrap;html=1;aspect=fixed;fillColor=light-dark(#776FED,#EDEDED);" parent="1" vertex="1">
          <mxGeometry x="605" y="104" width="10" height="10" as="geometry" />
        </mxCell>
        <mxCell id="a7J7K2taWwsyM3QRtXLd-35" value="" style="ellipse;whiteSpace=wrap;html=1;aspect=fixed;fillColor=light-dark(#776FED,#EDEDED);" parent="1" vertex="1">
          <mxGeometry x="405" y="525" width="10" height="10" as="geometry" />
        </mxCell>
        <mxCell id="a7J7K2taWwsyM3QRtXLd-36" value="" style="ellipse;whiteSpace=wrap;html=1;aspect=fixed;fillColor=light-dark(#776FED,#EDEDED);" parent="1" vertex="1">
          <mxGeometry x="505" y="105" width="10" height="10" as="geometry" />
        </mxCell>
        <mxCell id="a7J7K2taWwsyM3QRtXLd-37" value="" style="ellipse;whiteSpace=wrap;html=1;aspect=fixed;fillColor=light-dark(#776FED,#EDEDED);" parent="1" vertex="1">
          <mxGeometry x="405" y="105" width="10" height="10" as="geometry" />
        </mxCell>
        <mxCell id="a7J7K2taWwsyM3QRtXLd-38" value="" style="ellipse;whiteSpace=wrap;html=1;aspect=fixed;fillColor=light-dark(#776FED,#EDEDED);" parent="1" vertex="1">
          <mxGeometry x="305" y="105" width="10" height="10" as="geometry" />
        </mxCell>
        <mxCell id="a7J7K2taWwsyM3QRtXLd-39" value="" style="ellipse;whiteSpace=wrap;html=1;aspect=fixed;fillColor=light-dark(#776FED,#EDEDED);" parent="1" vertex="1">
          <mxGeometry x="205" y="105" width="10" height="10" as="geometry" />
        </mxCell>
        <mxCell id="a7J7K2taWwsyM3QRtXLd-40" value="" style="ellipse;whiteSpace=wrap;html=1;aspect=fixed;fillColor=light-dark(#776FED,#EDEDED);" parent="1" vertex="1">
          <mxGeometry x="105" y="105" width="10" height="10" as="geometry" />
        </mxCell>
        <mxCell id="3cTq-KgdSh5Kuy4V1WSz-1" value="" style="shape=flexArrow;endArrow=classic;startArrow=classic;html=1;rounded=0;width=3.6538461538461537;startSize=2.7307692307692304;startWidth=6.412721893491124;endWidth=6.412721893491124;endSize=2.975;fillColor=#f8cecc;strokeColor=#b85450;" parent="1" edge="1">
          <mxGeometry width="100" height="100" relative="1" as="geometry">
            <mxPoint x="410" y="415" as="sourcePoint" />
            <mxPoint x="410" y="340" as="targetPoint" />
          </mxGeometry>
        </mxCell>
        <mxCell id="3cTq-KgdSh5Kuy4V1WSz-2" value="" style="shape=flexArrow;endArrow=classic;startArrow=classic;html=1;rounded=0;width=3.6538461538461537;startSize=2.7307692307692304;startWidth=6.412721893491124;endWidth=6.412721893491124;endSize=2.975;fillColor=#f8cecc;strokeColor=#b85450;" parent="1" edge="1">
          <mxGeometry width="100" height="100" relative="1" as="geometry">
            <mxPoint x="395" y="430" as="sourcePoint" />
            <mxPoint x="320" y="430" as="targetPoint" />
          </mxGeometry>
        </mxCell>
        <mxCell id="3cTq-KgdSh5Kuy4V1WSz-3" value="" style="shape=flexArrow;endArrow=classic;startArrow=classic;html=1;rounded=0;width=3.6538461538461537;startSize=2.7307692307692304;startWidth=6.412721893491124;endWidth=6.412721893491124;endSize=2.975;fillColor=#f8cecc;strokeColor=#b85450;" parent="1" edge="1">
          <mxGeometry width="100" height="100" relative="1" as="geometry">
            <mxPoint x="409.9" y="445" as="sourcePoint" />
            <mxPoint x="410" y="520" as="targetPoint" />
          </mxGeometry>
        </mxCell>
        <mxCell id="3cTq-KgdSh5Kuy4V1WSz-4" value="" style="shape=flexArrow;endArrow=classic;startArrow=classic;html=1;rounded=0;width=3.6538461538461537;startSize=2.7307692307692304;startWidth=6.412721893491124;endWidth=6.412721893491124;endSize=2.975;fillColor=#f8cecc;strokeColor=#b85450;" parent="1" edge="1">
          <mxGeometry width="100" height="100" relative="1" as="geometry">
            <mxPoint x="425" y="430" as="sourcePoint" />
            <mxPoint x="500" y="430" as="targetPoint" />
          </mxGeometry>
        </mxCell>
        <mxCell id="3cTq-KgdSh5Kuy4V1WSz-5" value="" style="curved=1;endArrow=block;html=1;rounded=0;strokeWidth=4;startArrow=block;startFill=1;endSize=3;startSize=3;endFill=1;fillColor=#d80073;strokeColor=#A50040;" parent="1" edge="1">
          <mxGeometry width="50" height="50" relative="1" as="geometry">
            <mxPoint x="420" y="530" as="sourcePoint" />
            <mxPoint x="480" y="510" as="targetPoint" />
            <Array as="points">
              <mxPoint x="455" y="530" />
            </Array>
          </mxGeometry>
        </mxCell>
        <mxCell id="3cTq-KgdSh5Kuy4V1WSz-8" value="" style="curved=1;endArrow=block;html=1;rounded=0;strokeWidth=4;startArrow=block;startFill=1;endSize=3;startSize=3;endFill=1;fillColor=#d80073;strokeColor=#A50040;" parent="1" edge="1">
          <mxGeometry width="50" height="50" relative="1" as="geometry">
            <mxPoint x="490" y="500" as="sourcePoint" />
            <mxPoint x="510" y="440" as="targetPoint" />
            <Array as="points">
              <mxPoint x="510" y="475" />
            </Array>
          </mxGeometry>
        </mxCell>
        <mxCell id="3cTq-KgdSh5Kuy4V1WSz-9" value="" style="curved=1;endArrow=block;html=1;rounded=0;strokeWidth=4;startArrow=block;startFill=1;endSize=3;startSize=3;endFill=1;fillColor=#d80073;strokeColor=#A50040;" parent="1" edge="1">
          <mxGeometry width="50" height="50" relative="1" as="geometry">
            <mxPoint x="490" y="360" as="sourcePoint" />
            <mxPoint x="510" y="420" as="targetPoint" />
            <Array as="points">
              <mxPoint x="510" y="385" />
            </Array>
          </mxGeometry>
        </mxCell>
        <mxCell id="3cTq-KgdSh5Kuy4V1WSz-10" value="" style="curved=1;endArrow=block;html=1;rounded=0;strokeWidth=4;startArrow=block;startFill=1;endSize=3;startSize=3;endFill=1;fillColor=#d80073;strokeColor=#A50040;" parent="1" edge="1">
          <mxGeometry width="50" height="50" relative="1" as="geometry">
            <mxPoint x="420" y="330" as="sourcePoint" />
            <mxPoint x="480" y="350" as="targetPoint" />
            <Array as="points">
              <mxPoint x="455" y="330" />
            </Array>
          </mxGeometry>
        </mxCell>
        <mxCell id="3cTq-KgdSh5Kuy4V1WSz-11" value="" style="curved=1;endArrow=block;html=1;rounded=0;strokeWidth=4;startArrow=block;startFill=1;endSize=3;startSize=3;endFill=1;fillColor=#d80073;strokeColor=#A50040;" parent="1" edge="1">
          <mxGeometry width="50" height="50" relative="1" as="geometry">
            <mxPoint x="340" y="350" as="sourcePoint" />
            <mxPoint x="400" y="330" as="targetPoint" />
            <Array as="points">
              <mxPoint x="365" y="330" />
            </Array>
          </mxGeometry>
        </mxCell>
        <mxCell id="3cTq-KgdSh5Kuy4V1WSz-12" value="" style="curved=1;endArrow=block;html=1;rounded=0;strokeWidth=4;startArrow=block;startFill=1;endSize=3;startSize=3;endFill=1;fillColor=#d80073;strokeColor=#A50040;" parent="1" edge="1">
          <mxGeometry width="50" height="50" relative="1" as="geometry">
            <mxPoint x="330" y="360" as="sourcePoint" />
            <mxPoint x="310" y="420" as="targetPoint" />
            <Array as="points">
              <mxPoint x="310" y="385" />
            </Array>
          </mxGeometry>
        </mxCell>
        <mxCell id="3cTq-KgdSh5Kuy4V1WSz-13" value="" style="curved=1;endArrow=block;html=1;rounded=0;strokeWidth=4;startArrow=block;startFill=1;endSize=3;startSize=3;endFill=1;fillColor=#d80073;strokeColor=#A50040;" parent="1" edge="1">
          <mxGeometry width="50" height="50" relative="1" as="geometry">
            <mxPoint x="310" y="440" as="sourcePoint" />
            <mxPoint x="330" y="500" as="targetPoint" />
            <Array as="points">
              <mxPoint x="315" y="470" />
            </Array>
          </mxGeometry>
        </mxCell>
        <mxCell id="3cTq-KgdSh5Kuy4V1WSz-14" value="" style="curved=1;endArrow=block;html=1;rounded=0;strokeWidth=4;startArrow=block;startFill=1;endSize=3;startSize=3;endFill=1;fillColor=#d80073;strokeColor=#A50040;" parent="1" edge="1">
          <mxGeometry width="50" height="50" relative="1" as="geometry">
            <mxPoint x="335" y="510" as="sourcePoint" />
            <mxPoint x="395" y="530" as="targetPoint" />
            <Array as="points">
              <mxPoint x="365" y="530" />
            </Array>
          </mxGeometry>
        </mxCell>
      </root>
    </mxGraphModel>
  </diagram>
</mxfile>
